<svg width="1461" height="1381" viewBox="0 0 1461 1381" fill="none" xmlns="http://www.w3.org/2000/svg">
<path d="M1034.06 671.294L996.687 609.055H1034.06C1032.58 447.52 1009.91 300.461 898.647 213.79C847.806 168.821 788.485 134.404 707.78 126.647C586.815 150.074 544.705 193.566 529.317 243.873C515.782 227.889 501.934 224.624 487.834 231.438C473.797 239.98 463.936 252.258 458.786 268.776C454.547 304.983 467.139 336.354 477.471 368.353C483.375 332.774 491.225 300.963 508.089 286.926C542.883 347.973 613.226 381.166 715.065 389.644L711.925 336.731C671.29 339.62 637.186 329.477 608.39 308.72L716.604 304.072C781.608 284.76 829.215 295.091 867.558 321.187C888.881 332.68 952.096 491.169 928.261 483.036C923.833 481.529 876.916 405.22 876.916 405.22L866.02 439.449L914.254 500.119C917.803 515.757 916.233 526.152 906.466 528.13L870.699 465.89L856.662 490.792C856.662 490.792 911.899 570.995 901.819 567.823C885.678 562.704 738.618 744.463 746.437 750.68C714.437 763.744 699.929 752.313 699.521 721.099L746.437 629.309L730.641 599.759L589.014 794.267L635.71 889.166L592.123 1009L713.495 842.502L903.358 935.862C936.645 916.392 966.258 875.097 993.61 820.708C1028.4 770.589 1047.25 720.722 1034.09 671.294H1034.06ZM704.137 213.79C702.065 212.22 718.08 210.147 719.179 210.053C734.347 208.797 749.735 209.142 764.902 209.77C803.811 211.372 845.42 217.213 877.137 242.806C912.748 271.539 939.691 308.751 965.598 346.058C889.038 281.148 803.371 234.139 704.169 213.79H704.137Z" fill="#68C6D1"/>
<path d="M894.974 957.153C850.978 1057.14 771.34 1139.04 677.665 1193.74L672.766 1196.66C622.584 1179.55 575.197 1154.55 532.834 1123.15C409.64 1031.86 330.223 895.667 270.431 757.338C273.383 724.711 269.301 691.455 260.163 659.425C251.244 627.865 237.991 597.467 222.698 568.169L223.955 567.478C240.975 595.897 256.111 625.636 267.071 657.258C278.031 688.786 284.594 722.418 283.526 756.522L282.993 753.507C303.279 798.884 325.701 843.256 351.2 885.775C376.636 928.294 405.118 968.929 437.275 1006.3C500.866 1080.75 581.949 1141.49 675.373 1171.79C675.435 1171.79 665.292 1172.83 665.292 1172.86C755.105 1120.32 830.66 1042.88 872.803 947.261L895.005 957.216L894.974 957.153Z" fill="#68C6D1"/>
<path d="M305.76 507.342C307.927 509.697 308.931 512.523 310.407 515.192L314.521 523.263L322.749 539.404C333.708 561.04 345.139 582.583 354.905 604.784C359.898 616.592 359.616 630.126 359.678 642.75C359.93 666.867 359.804 690.984 359.458 715.102C359.458 720.032 359.207 728.196 359.27 732.907C359.521 749.519 367.089 765.534 379.054 776.996C443.65 844.575 514.056 918.653 578.118 987.174C552.022 962.052 499.987 911.745 474.111 886.497C438.374 851.829 402.983 816.877 367.435 782.052C359.302 773.887 353.084 763.87 349.472 752.91C345.17 740.977 345.641 727.537 345.484 715.102C345.107 688.001 344.982 660.806 345.39 633.706C345.453 631.382 345.516 627.331 345.453 625.07C345.233 616.811 342.815 608.709 339.549 601.141C336.378 593.04 332.892 583.901 329.877 575.768C323.816 559.313 317.441 541.162 311.443 524.613C310.03 520.028 306.356 512.209 305.822 507.342H305.76Z" fill="#68C6D1"/>
<path d="M566.466 881.441L481.113 823.126L453.981 698.615L461.895 696.888L488.336 818.227L571.02 874.752L566.466 881.441Z" fill="#68C6D1"/>
<path d="M574.036 788.144C570.55 723.329 536.949 676.727 471.285 645.639C469.15 644.634 467.831 642.467 467.862 640.112C467.925 637.788 469.338 635.684 471.473 634.773L514.338 616.56C522.221 613.2 527.339 605.506 527.339 596.934V592.254C527.339 588.235 525.643 584.404 522.66 581.703L516.851 576.459C511.826 571.906 510.288 564.683 512.988 558.465L524.952 531.145C525.957 528.821 525.518 526.089 523.822 524.205L505.954 504.358C501.683 499.616 499.328 493.461 499.328 487.055V458.668C499.328 454.711 498.26 450.786 496.25 447.394C473.829 409.428 436.804 383.207 383.137 367.255C311.067 373.221 259.848 399.631 226.624 447.928L219.936 443.343C254.761 392.722 308.178 365.182 383.231 359.121L383.985 359.059L384.707 359.278C440.039 375.608 479.921 403.87 503.222 443.28C505.985 447.959 507.43 453.266 507.43 458.699V487.087C507.43 491.483 509.063 495.691 511.983 498.957L529.851 518.804C533.683 523.043 534.656 529.167 532.364 534.411L520.399 561.731C519.08 564.746 519.834 568.231 522.284 570.461L528.093 575.705C532.772 579.945 535.441 585.974 535.441 592.254V596.934C535.441 608.772 528.407 619.386 517.51 624.034L479.01 640.395C544.799 672.865 578.526 721.099 582.106 787.736L574.004 788.175L574.036 788.144Z" fill="#68C6D1"/>
<path d="M670.788 626.106C669.155 626.106 667.49 625.918 665.763 625.604C647.455 621.93 627.043 598.66 622.741 585.345L622.553 584.749C621.611 581.829 617.528 569.173 617.528 569.173C617.214 568.168 616.146 567.634 615.141 567.917L604.873 570.9C602.958 571.466 600.948 571.089 599.378 569.895C597.808 568.702 596.865 566.881 596.865 564.902V556.612L593.944 559.533C592.186 561.323 589.517 561.856 587.193 560.914C584.869 559.972 583.33 557.774 583.268 555.262C582.796 535.196 582.891 526.089 583.079 521.787C579.53 521.849 571.177 522.572 551.959 525.869C548.002 526.529 544.014 525.241 541.219 522.383C538.424 519.525 537.231 515.475 537.985 511.581L546.997 465.827C548.379 458.793 546.369 451.382 541.627 446.043L520.399 422.052C510.161 410.496 504.54 395.642 504.54 380.192V346.058H512.642V380.192C512.642 393.633 517.541 406.602 526.459 416.682L547.688 440.674C554.094 447.928 556.826 457.914 554.942 467.397L545.93 513.151C545.678 514.47 546.055 515.789 546.997 516.731C547.939 517.704 549.227 518.113 550.546 517.893C586.596 511.675 588.449 513.653 590.239 515.6C591.275 516.731 591.684 518.301 591.307 519.777C590.993 521.284 590.773 530.359 591.213 550.74L593.756 548.196C595.641 546.312 598.436 545.747 600.885 546.783C603.334 547.788 604.935 550.175 604.935 552.812V562.421L612.849 560.129C618.093 558.59 623.526 561.48 625.222 566.693C628.708 577.495 629.964 581.357 630.403 582.896H630.466C634.14 594.201 652.511 614.707 667.365 617.69C672.798 618.789 677.1 617.376 680.491 613.42L708.126 581.169C712.051 576.584 716.04 571.308 720.248 565.687C729.543 553.315 739.183 540.534 750.363 532.401C754.885 529.103 760.412 528.35 764.777 530.422C768.608 532.244 770.775 535.792 772.345 538.367C774.574 542.01 776.804 545.653 778.94 549.327C781.201 553.189 783.273 557.052 783.932 561.636C784.812 567.823 782.802 574.48 778.28 580.447C766.944 595.363 754.288 610.248 743.517 621.333L737.707 615.681C748.259 604.815 760.695 590.213 771.843 575.548C774.983 571.403 776.49 566.755 775.925 562.799C775.485 559.69 773.79 556.581 771.937 553.44C769.801 549.798 767.603 546.218 765.405 542.638C763.992 540.346 762.798 538.493 761.259 537.77C759.375 536.86 756.8 537.739 755.105 538.964C744.899 546.406 735.635 558.685 726.685 570.555C722.382 576.27 718.332 581.64 714.249 586.413L686.614 618.664C682.406 623.594 676.974 626.106 670.757 626.106H670.788Z" fill="#68C6D1"/>
<path d="M812.07 456.94C810.155 456.94 808.271 456.752 806.449 456.532C801.864 455.935 796.525 454.962 791.815 452.105C786.1 448.65 782.488 442.841 782.425 436.968L793.229 436.811C793.229 438.946 794.893 441.333 797.436 442.872C800.419 444.662 804.188 445.353 807.831 445.824C810.783 446.201 813.138 446.358 815.148 445.824C820.738 444.285 823.69 437.125 824.695 434.142C830.284 417.53 825.668 399.85 820.801 387.98C816.969 378.622 812.761 372.059 807.548 367.317C801.456 361.822 793.793 359.153 787.136 360.22C780.573 361.257 774.418 366.093 771.466 372.561C768.577 378.811 768.483 386.724 771.184 393.727L761.103 397.652C757.304 387.823 757.492 377.052 761.637 368.04C766.159 358.242 775.266 351.145 785.441 349.543C795.333 347.973 806.292 351.616 814.802 359.278C821.271 365.119 826.359 372.938 830.818 383.866C836.376 397.432 841.589 417.781 834.932 437.565C831.572 447.551 825.542 454.177 817.974 456.25C815.995 456.783 814.017 456.972 812.07 456.972V456.94Z" fill="#68C6D1"/>
<path d="M796.275 103.975C909.2 23.0819 1049.04 -26.5656 1187.37 16.8956C1234.03 30.7756 1277.02 53.0715 1316.4 79.3869C1354.24 114.118 1385.8 155.224 1409.89 200.444C1435.26 248.773 1451.87 301.717 1457.97 356.013C1460.73 377.429 1460.89 399.631 1460.67 421.204C1459.54 433.86 1459.6 447.677 1457.56 460.144C1456.84 466.299 1455.23 476.725 1454.48 482.691C1449.46 508.41 1443.08 536.421 1434.04 560.883C1406.25 640.897 1358.58 712.024 1304.09 775.772C1181.68 919.062 1027.21 1024.01 897.518 1156.37C870.48 1184.95 847.21 1217.42 827.269 1251.36C802.837 1292.78 782.583 1336.59 763.804 1380.9C779.537 1326.6 798.975 1272.91 825.102 1222.57C843.85 1186.2 867.245 1151.72 894.472 1121.11C1061.32 925.405 1354.4 732.624 1389.41 463.975C1405.49 341.881 1360.59 217.747 1269.49 134.687L1273.88 138.141C1256.7 126.868 1239.15 116.442 1221.19 107.147C1125.69 56.9653 1030.1 51.0931 925.403 76.2152C883.292 85.793 841.872 99.359 800.169 111.951L796.275 104.006V103.975Z" fill="#CCBD9A"/>
<path d="M235.73 747.258C-50.602 368.26 69.8914 42.0804 539.711 102.813C210.859 -88.1463 -305.814 251.097 235.73 747.258Z" fill="#68C6D1"/>
</svg>
